<svg xmlns="http://www.w3.org/2000/svg" xmlns:xlink="http://www.w3.org/1999/xlink" width="447" zoomAndPan="magnify" viewBox="0 0 335.25 335.999987" height="448" preserveAspectRatio="xMidYMid meet" version="1.0"><defs><clipPath id="812689971d"><path d="M 7.660156 8.410156 L 326.839844 8.410156 L 326.839844 327.589844 L 7.660156 327.589844 Z M 7.660156 8.410156 " clip-rule="nonzero"/></clipPath><clipPath id="17166d1e58"><path d="M 167.25 8.410156 C 79.113281 8.410156 7.660156 79.859375 7.660156 168 C 7.660156 256.140625 79.113281 327.589844 167.25 327.589844 C 255.390625 327.589844 326.839844 256.140625 326.839844 168 C 326.839844 79.859375 255.390625 8.410156 167.25 8.410156 Z M 167.25 8.410156 " clip-rule="nonzero"/></clipPath><clipPath id="b618638c59"><path d="M 62.6875 35.210938 L 276.710938 35.210938 L 276.710938 278.417969 L 62.6875 278.417969 Z M 62.6875 35.210938 " clip-rule="nonzero"/></clipPath></defs><g clip-path="url(#812689971d)"><g clip-path="url(#17166d1e58)"><path fill="#0161ef" d="M 7.660156 8.410156 L 326.839844 8.410156 L 326.839844 327.589844 L 7.660156 327.589844 Z M 7.660156 8.410156 " fill-opacity="1" fill-rule="nonzero"/></g></g><g clip-path="url(#b618638c59)"><path fill="#ffffff" d="M 105.347656 278.378906 L 155.398438 255.296875 L 169.648438 247.417969 L 184.71875 256.003906 L 233.824219 278.378906 L 169.648438 140.363281 Z M 169.648438 35.207031 L 276.574219 264.835938 L 224.757812 235.632812 L 170 119.636719 L 115.59375 233.039062 L 62.722656 264.835938 L 169.648438 35.207031 " fill-opacity="1" fill-rule="evenodd"/></g></svg>
